PathFileType	4	(X/Y/Z)	F:\MotionCapture\20160217\3\Generated_files\EMG_Fprce_test01-Dynamic.trc
DataRate	CameraRate	NumFrames	NumMarkers	Units	OrigDataRate	OrigDataStartFrame	OrigNumFrames
120.00	120.00	       5	39	mm	120.00	1	       569
Frame#	Time	Top.Head			Front.Head			Rear.Head			R.Shoulder			R.Offset			R.Elbow			R.Wrist			L.Shoulder			L.Elbow			L.Wrist			R.ASIS			L.ASIS			V.Sacral			R.Thigh			R.Knee			R.Shank			R.Ankle			R.Heel			R.Toe			L.Thigh			L.Knee			L.Shank			L.Ankle			L.Heel			L.Toe			R1			R2			R3			R4			R5			R6			R7			L1			L2			L3			L4			L5			L6			L7			V_Mid_ASIS			V_Pelvis_Origin			V_R.Hip_JC			V_L.Hip_JC			V_R.Knee_JC			V_L.Knee_JC			V_R.Ankle_JC			V_L.Ankle_JC			V_Mid_Hip			V_Mid_Shoulder			V_R.Hand			V_L.Hand			V_R.Toe_Offset_Static			V_L.Toe_Offset_Static			V_R.Toe_Offset			V_L.Toe_Offset			
		X1	Y1	Z1	X2	Y2	Z2	X3	Y3	Z3	X4	Y4	Z4	X5	Y5	Z5	X6	Y6	Z6	X7	Y7	Z7	X8	Y8	Z8	X9	Y9	Z9	X10	Y10	Z10	X11	Y11	Z11	X12	Y12	Z12	X13	Y13	Z13	X14	Y14	Z14	X15	Y15	Z15	X16	Y16	Z16	X17	Y17	Z17	X18	Y18	Z18	X19	Y19	Z19	X20	Y20	Z20	X21	Y21	Z21	X22	Y22	Z22	X23	Y23	Z23	X24	Y24	Z24	X25	Y25	Z25	X26	Y26	Z26	X27	Y27	Z27	X28	Y28	Z28	X29	Y29	Z29	X30	Y30	Z30	X31	Y31	Z31	X32	Y32	Z32	X33	Y33	Z33	X34	Y34	Z34	X35	Y35	Z35	X36	Y36	Z36	X37	Y37	Z37	X38	Y38	Z38	X39	Y39	Z39	

1	0.000	2384.70313	23.86753	1738.67749	2260.99902	18.63009	1673.42871	2481.47583	20.25383	1653.71680	2405.64453	217.93329	1426.33496	2531.04590	-53.44354	1282.14966	2438.79077	301.46231	1095.18335	2313.56982	281.23547	866.62146	2371.40698	-192.66537	1430.80420	2375.20679	-290.49731	1106.45154	2247.84717	-292.38916	883.65070				2310.75537	-116.46767	952.79694	2544.95264	10.05119	952.98047	2370.56250	197.76683	477.60510	2298.31226	161.59000	581.71832							2521.16406	147.50021	50.57610	2312.57715	206.33131	46.60171	2280.86328	-69.51968	630.58459	2373.22656	-124.06448	473.13898	2364.74316	-49.99906	332.40109	2439.93774	-110.59415	65.88677	2503.61670	-55.31098	50.08452	2298.79150	-110.59660	46.51697	2263.15674	189.22853	43.53514	2305.82935	170.70703	53.82458	2399.77612	128.89319	61.93702	2473.00000	121.45559	47.75466	2494.98999	193.23637	52.68207	2420.97827	227.02864	42.64108	2354.63770	248.58289	42.13191	2252.10352	-85.16476	40.47145	2287.11182	-72.04479	50.77618	2380.29102	-25.99075	53.24772	2464.07983	-24.38427	49.92903	2479.63306	-97.06624	50.95157	2405.06812	-125.61073	39.74028	2341.26636	-141.63710	43.92191																																																	2385.72241	138.92564	239.22621	2333.50366	174.91533	958.70355	2456.77979	211.70189	80.63142	2658.51489	166.69278	-49.72155	2873.12280	101.46519	-88.02145	3050.61914	-30.33681	846.74988	2984.45288	107.83974	-153.01120	
2	0.008	2385.11377	24.46504	1738.68188	2261.77100	19.29034	1673.47681	2481.63672	20.96191	1653.85413	2405.33887	218.33698	1426.51379	2530.88843	-52.88759	1282.14966	2437.14185	300.74673	1094.52026	2311.25537	279.32944	866.72412	2371.47925	-191.73741	1430.91345	2374.65381	-289.67108	1106.89185	2246.86865	-290.57498	884.03308				2311.05859	-114.95374	952.86292	2544.54224	10.31112	953.29126	2370.68579	198.14085	477.66977	2299.07324	161.52637	582.09808							2521.23877	147.67900	50.55058	2312.54077	206.33243	46.52758	2281.06860	-69.18379	630.47284	2372.84741	-123.38955	473.18091	2364.27393	-49.34722	332.32770	2441.16064	-112.92310	67.96146	2503.62598	-55.32661	50.11596	2298.79102	-110.65031	46.56645	2263.13525	189.38338	43.47957	2305.95752	170.91420	53.89916	2399.79883	129.11812	61.84437	2473.03735	121.63110	47.73925	2494.99170	193.62762	52.43074	2420.95435	227.08641	42.49175	2354.65576	248.99048	41.86381	2252.12378	-85.16349	40.45171	2287.16284	-72.08806	50.78873	2380.25000	-26.08764	53.22787	2464.08813	-24.38801	49.92268	2479.65015	-97.00303	50.98144	2405.02393	-125.52348	39.75126	2341.33423	-141.58395	43.97123																																																	2386.05591	139.14313	239.35602	2333.93677	175.34496	958.97668	2873.02686	101.45448	-87.99334	2456.75049	212.05026	80.47495	2660.33203	166.59367	-50.06963	3051.54370	-29.28012	847.49005	2984.34473	107.82644	-152.96600	
3	0.017	2385.13550	25.06429	1738.73535	2261.85083	19.97889	1673.65686	2481.75269	21.45191	1653.98486	2405.54736	219.10075	1426.64856	2530.60352	-52.36252	1281.97900	2435.32910	300.75394	1094.17468	2310.70947	277.81674	866.41071	2371.59033	-191.06824	1430.95227	2374.80225	-289.12866	1106.88452	2245.71606	-289.11270	884.32263				2308.78491	-113.62657	953.31525	2543.98950	10.48803	953.56146	2371.05957	198.38928	477.62540	2299.62158	160.90848	582.23187							2521.35205	147.79620	50.45655	2312.52075	206.48184	46.52395	2279.53784	-68.04424	630.22784	2372.74683	-123.17313	473.28345	2363.88452	-48.63212	332.41946	2439.52026	-111.43026	66.33454	2503.62720	-55.30593	50.13211	2298.67944	-110.76839	46.40552	2263.09351	189.58699	43.55091	2305.99365	171.17313	53.98953	2399.86865	129.24417	61.83187	2473.08105	121.76667	47.67417	2495.02148	193.89809	52.14489	2420.90234	227.19498	42.37749	2354.62964	249.33273	41.82473	2252.24780	-85.14635	40.45515	2286.94409	-71.77787	50.51775	2380.28101	-25.84517	53.38119	2463.95361	-24.73417	49.74256	2478.75366	-95.85608	49.46654	2405.10474	-125.68409	39.85910	2341.28076	-141.54341	43.98316																																																	2386.13525	139.20045	239.18423	2334.31763	176.43109	959.10608	2637.11230	22.18041	263.99213	2456.90186	212.27669	80.40321	2661.80420	166.51320	-50.35137	
4	0.025	2385.10010	25.53680	1738.87903	2261.85718	20.55245	1673.53638	2481.83130	21.79538	1654.10754	2406.02856	219.82431	1426.83435	2530.35352	-51.92145	1281.82043	2433.98071	301.13004	1094.18323	2308.24292	276.11111	866.59406	2370.93262	-190.02130	1430.87769	2373.59961	-287.55890	1106.74158	2245.03052	-287.58649	884.58594				2307.13867	-113.01884	953.68158	2543.23755	10.57025	953.64081	2371.62500	198.67889	477.52301	2299.99341	160.52641	582.15576							2521.39722	147.92200	50.32808	2312.52197	206.40515	46.52995	2278.14038	-67.17632	630.02161	2372.44946	-122.92968	473.46268	2364.10938	-48.20762	332.31799	2439.40918	-111.45863	66.32774	2503.64404	-55.28459	50.15858	2298.79639	-110.74923	46.61135	2263.18970	189.57663	43.56971	2305.99609	171.22121	54.01077	2399.92798	129.30142	61.77010	2473.15967	121.73354	47.69514	2495.09106	194.01259	52.00377	2420.98657	227.22112	42.48098	2354.58423	249.16916	41.79270	2252.33911	-85.13531	40.45536	2286.97949	-71.82272	50.53256	2380.47339	-25.80685	53.41257	2463.83447	-24.77197	49.59546	2478.69141	-95.81879	49.45480	2404.98657	-125.52301	39.80590	2341.29736	-141.44138	44.05488																																																	2386.57178	139.34401	239.07841	2333.79492	177.64146	959.30438	2637.37354	22.53712	264.25162	2457.12500	212.39833	80.35503	
5	0.033	2385.02173	25.92915	1738.94812	2262.40845	21.11161	1673.33008	2481.90869	22.41829	1654.30688	2406.13892	220.34351	1427.17834	2530.10962	-51.42408	1281.76892	2432.58179	301.14105	1093.99683	2306.72632	274.88675	866.73389	2370.48804	-189.08107	1430.85596	2373.83838	-286.85535	1106.64990	2244.24219	-285.69583	884.70715				2307.09229	-112.26083	953.69513	2542.56421	10.93860	953.54700	2372.09521	198.78615	477.48102	2300.80347	159.82509	581.94104							2521.41748	148.07321	50.15548	2312.57544	206.45473	46.40857	2277.79932	-66.40228	630.09570	2372.18896	-122.76045	473.43222	2364.28516	-47.78220	332.05753	2440.76172	-112.82513	68.10640	2503.65967	-55.27977	50.18974	2298.76294	-110.61057	46.66755	2263.24780	189.64319	43.58926	2306.00879	171.24036	54.01734	2399.96948	129.32054	61.82767	2473.18677	121.82014	47.54782	2495.22046	194.08656	51.89755	2421.03467	227.24815	42.44608	2354.59058	249.03888	41.70762	2252.36987	-85.05559	40.44048	2287.15308	-71.93773	50.77302	2380.36719	-25.93811	53.46103	2463.97437	-24.34864	49.73259	2479.58325	-96.94245	51.05539	2404.99854	-125.52447	39.85520	2341.22290	-141.36513	44.09307																																																	2386.70923	139.45322	239.13626	2333.39258	179.25453	959.62805	2985.19385	108.06486	-153.20224	2456.92773	213.75624	80.85385	
